<mxfile host="app.diagrams.net" agent="Mozilla/5.0 (Windows NT 10.0; Win64; x64) AppleWebKit/537.36 (KHTML, like Gecko) Chrome/138.0.0.0 Safari/537.36" version="27.1.6">
  <diagram name="Page-1" id="rIHm7StvPIP1bkGJz7k7">
    <mxGraphModel dx="1120" dy="525" grid="1" gridSize="10" guides="1" tooltips="1" connect="1" arrows="1" fold="1" page="1" pageScale="1" pageWidth="827" pageHeight="1169" math="0" shadow="0">
      <root>
        <mxCell id="0" />
        <mxCell id="1" parent="0" />
        <mxCell id="9dU0KBPOQf5475nINi9q-49" value="" style="group" vertex="1" connectable="0" parent="1">
          <mxGeometry x="190" y="30" width="530" height="830" as="geometry" />
        </mxCell>
        <mxCell id="9dU0KBPOQf5475nINi9q-13" value="" style="edgeStyle=orthogonalEdgeStyle;rounded=0;orthogonalLoop=1;jettySize=auto;html=1;" edge="1" parent="9dU0KBPOQf5475nINi9q-49" source="9dU0KBPOQf5475nINi9q-1" target="9dU0KBPOQf5475nINi9q-6">
          <mxGeometry relative="1" as="geometry" />
        </mxCell>
        <mxCell id="9dU0KBPOQf5475nINi9q-1" value="Start" style="ellipse;whiteSpace=wrap;html=1;" vertex="1" parent="9dU0KBPOQf5475nINi9q-49">
          <mxGeometry x="360" width="120" height="80" as="geometry" />
        </mxCell>
        <mxCell id="9dU0KBPOQf5475nINi9q-3" value="Do you want to play game?" style="rounded=1;whiteSpace=wrap;html=1;" vertex="1" parent="9dU0KBPOQf5475nINi9q-49">
          <mxGeometry x="360" y="120" width="120" height="60" as="geometry" />
        </mxCell>
        <mxCell id="9dU0KBPOQf5475nINi9q-4" value="" style="endArrow=classic;html=1;rounded=0;" edge="1" parent="9dU0KBPOQf5475nINi9q-49">
          <mxGeometry width="50" height="50" relative="1" as="geometry">
            <mxPoint x="420" y="180" as="sourcePoint" />
            <mxPoint x="420" y="230" as="targetPoint" />
          </mxGeometry>
        </mxCell>
        <mxCell id="9dU0KBPOQf5475nINi9q-8" value="" style="edgeStyle=orthogonalEdgeStyle;rounded=0;orthogonalLoop=1;jettySize=auto;html=1;" edge="1" parent="9dU0KBPOQf5475nINi9q-49" source="9dU0KBPOQf5475nINi9q-5" target="9dU0KBPOQf5475nINi9q-7">
          <mxGeometry relative="1" as="geometry" />
        </mxCell>
        <mxCell id="9dU0KBPOQf5475nINi9q-5" value="Choose&amp;nbsp; 2 cards for user and show sum and choose 1 card for computer/" style="rounded=0;whiteSpace=wrap;html=1;" vertex="1" parent="9dU0KBPOQf5475nINi9q-49">
          <mxGeometry x="360" y="230" width="120" height="80" as="geometry" />
        </mxCell>
        <mxCell id="9dU0KBPOQf5475nINi9q-6" value="Yes" style="text;html=1;align=center;verticalAlign=middle;resizable=0;points=[];autosize=1;strokeColor=none;fillColor=none;" vertex="1" parent="9dU0KBPOQf5475nINi9q-49">
          <mxGeometry x="430" y="188" width="40" height="30" as="geometry" />
        </mxCell>
        <mxCell id="9dU0KBPOQf5475nINi9q-7" value="Ask user if they want a hit" style="rounded=1;whiteSpace=wrap;html=1;" vertex="1" parent="9dU0KBPOQf5475nINi9q-49">
          <mxGeometry x="360" y="350" width="120" height="60" as="geometry" />
        </mxCell>
        <mxCell id="9dU0KBPOQf5475nINi9q-9" value="" style="endArrow=classic;html=1;rounded=0;" edge="1" parent="9dU0KBPOQf5475nINi9q-49">
          <mxGeometry width="50" height="50" relative="1" as="geometry">
            <mxPoint x="420" y="410" as="sourcePoint" />
            <mxPoint x="420" y="440" as="targetPoint" />
          </mxGeometry>
        </mxCell>
        <mxCell id="9dU0KBPOQf5475nINi9q-15" value="" style="edgeStyle=orthogonalEdgeStyle;rounded=0;orthogonalLoop=1;jettySize=auto;html=1;" edge="1" parent="9dU0KBPOQf5475nINi9q-49" source="9dU0KBPOQf5475nINi9q-10" target="9dU0KBPOQf5475nINi9q-14">
          <mxGeometry relative="1" as="geometry" />
        </mxCell>
        <mxCell id="9dU0KBPOQf5475nINi9q-10" value="add a new number for user and show sum" style="rounded=0;whiteSpace=wrap;html=1;" vertex="1" parent="9dU0KBPOQf5475nINi9q-49">
          <mxGeometry x="360" y="440" width="120" height="60" as="geometry" />
        </mxCell>
        <mxCell id="9dU0KBPOQf5475nINi9q-12" value="Yes" style="text;html=1;align=center;verticalAlign=middle;resizable=0;points=[];autosize=1;strokeColor=none;fillColor=none;" vertex="1" parent="9dU0KBPOQf5475nINi9q-49">
          <mxGeometry x="430" y="408" width="40" height="30" as="geometry" />
        </mxCell>
        <mxCell id="9dU0KBPOQf5475nINi9q-17" value="" style="edgeStyle=orthogonalEdgeStyle;rounded=0;orthogonalLoop=1;jettySize=auto;html=1;" edge="1" parent="9dU0KBPOQf5475nINi9q-49" source="9dU0KBPOQf5475nINi9q-14" target="9dU0KBPOQf5475nINi9q-16">
          <mxGeometry relative="1" as="geometry" />
        </mxCell>
        <mxCell id="9dU0KBPOQf5475nINi9q-14" value="sum is greater than 21?" style="rounded=0;whiteSpace=wrap;html=1;" vertex="1" parent="9dU0KBPOQf5475nINi9q-49">
          <mxGeometry x="360" y="540" width="120" height="60" as="geometry" />
        </mxCell>
        <mxCell id="9dU0KBPOQf5475nINi9q-16" value="you lose" style="rounded=0;whiteSpace=wrap;html=1;" vertex="1" parent="9dU0KBPOQf5475nINi9q-49">
          <mxGeometry x="360" y="640" width="120" height="60" as="geometry" />
        </mxCell>
        <mxCell id="9dU0KBPOQf5475nINi9q-18" value="Yes" style="text;html=1;align=center;verticalAlign=middle;resizable=0;points=[];autosize=1;strokeColor=none;fillColor=none;" vertex="1" parent="9dU0KBPOQf5475nINi9q-49">
          <mxGeometry x="420" y="610" width="40" height="30" as="geometry" />
        </mxCell>
        <mxCell id="9dU0KBPOQf5475nINi9q-21" value="" style="endArrow=classic;html=1;rounded=0;entryX=1.012;entryY=0.643;entryDx=0;entryDy=0;entryPerimeter=0;" edge="1" parent="9dU0KBPOQf5475nINi9q-49" target="9dU0KBPOQf5475nINi9q-7">
          <mxGeometry width="50" height="50" relative="1" as="geometry">
            <mxPoint x="480" y="570" as="sourcePoint" />
            <mxPoint x="520" y="360" as="targetPoint" />
            <Array as="points">
              <mxPoint x="520" y="570" />
              <mxPoint x="520" y="389" />
            </Array>
          </mxGeometry>
        </mxCell>
        <mxCell id="9dU0KBPOQf5475nINi9q-22" value="No" style="text;html=1;align=center;verticalAlign=middle;resizable=0;points=[];autosize=1;strokeColor=none;fillColor=none;" vertex="1" parent="9dU0KBPOQf5475nINi9q-49">
          <mxGeometry x="490" y="508" width="40" height="30" as="geometry" />
        </mxCell>
        <mxCell id="9dU0KBPOQf5475nINi9q-23" value="" style="endArrow=classic;html=1;rounded=0;" edge="1" parent="9dU0KBPOQf5475nINi9q-49">
          <mxGeometry width="50" height="50" relative="1" as="geometry">
            <mxPoint x="360" y="380" as="sourcePoint" />
            <mxPoint x="310" y="380" as="targetPoint" />
          </mxGeometry>
        </mxCell>
        <mxCell id="9dU0KBPOQf5475nINi9q-24" value="is the user sum greater than 21?" style="rounded=0;whiteSpace=wrap;html=1;" vertex="1" parent="9dU0KBPOQf5475nINi9q-49">
          <mxGeometry x="190" y="350" width="120" height="60" as="geometry" />
        </mxCell>
        <mxCell id="9dU0KBPOQf5475nINi9q-25" value="" style="endArrow=classic;html=1;rounded=0;entryX=0;entryY=0.5;entryDx=0;entryDy=0;" edge="1" parent="9dU0KBPOQf5475nINi9q-49" target="9dU0KBPOQf5475nINi9q-16">
          <mxGeometry width="50" height="50" relative="1" as="geometry">
            <mxPoint x="250" y="410" as="sourcePoint" />
            <mxPoint x="300" y="360" as="targetPoint" />
            <Array as="points">
              <mxPoint x="250" y="670" />
            </Array>
          </mxGeometry>
        </mxCell>
        <mxCell id="9dU0KBPOQf5475nINi9q-26" value="Yes" style="text;html=1;align=center;verticalAlign=middle;resizable=0;points=[];autosize=1;strokeColor=none;fillColor=none;" vertex="1" parent="9dU0KBPOQf5475nINi9q-49">
          <mxGeometry x="250" y="488" width="40" height="30" as="geometry" />
        </mxCell>
        <mxCell id="9dU0KBPOQf5475nINi9q-27" value="No" style="text;html=1;align=center;verticalAlign=middle;resizable=0;points=[];autosize=1;strokeColor=none;fillColor=none;" vertex="1" parent="9dU0KBPOQf5475nINi9q-49">
          <mxGeometry x="310" y="348" width="40" height="30" as="geometry" />
        </mxCell>
        <mxCell id="9dU0KBPOQf5475nINi9q-30" value="" style="endArrow=classic;html=1;rounded=0;exitX=0;exitY=0.5;exitDx=0;exitDy=0;" edge="1" parent="9dU0KBPOQf5475nINi9q-49" source="9dU0KBPOQf5475nINi9q-24">
          <mxGeometry width="50" height="50" relative="1" as="geometry">
            <mxPoint x="190" y="390" as="sourcePoint" />
            <mxPoint x="140" y="380" as="targetPoint" />
          </mxGeometry>
        </mxCell>
        <mxCell id="9dU0KBPOQf5475nINi9q-31" value="No" style="text;html=1;align=center;verticalAlign=middle;resizable=0;points=[];autosize=1;strokeColor=none;fillColor=none;" vertex="1" parent="9dU0KBPOQf5475nINi9q-49">
          <mxGeometry x="150" y="348" width="40" height="30" as="geometry" />
        </mxCell>
        <mxCell id="9dU0KBPOQf5475nINi9q-34" value="" style="edgeStyle=orthogonalEdgeStyle;rounded=0;orthogonalLoop=1;jettySize=auto;html=1;" edge="1" parent="9dU0KBPOQf5475nINi9q-49" source="9dU0KBPOQf5475nINi9q-32" target="9dU0KBPOQf5475nINi9q-33">
          <mxGeometry relative="1" as="geometry" />
        </mxCell>
        <mxCell id="9dU0KBPOQf5475nINi9q-32" value="pick the another number for the computer and find the computer sum" style="rounded=0;whiteSpace=wrap;html=1;" vertex="1" parent="9dU0KBPOQf5475nINi9q-49">
          <mxGeometry x="20" y="348" width="120" height="60" as="geometry" />
        </mxCell>
        <mxCell id="9dU0KBPOQf5475nINi9q-33" value="Is the sum less than 13?" style="rounded=0;whiteSpace=wrap;html=1;" vertex="1" parent="9dU0KBPOQf5475nINi9q-49">
          <mxGeometry x="20" y="440" width="120" height="60" as="geometry" />
        </mxCell>
        <mxCell id="9dU0KBPOQf5475nINi9q-35" value="" style="endArrow=classic;html=1;rounded=0;" edge="1" parent="9dU0KBPOQf5475nINi9q-49">
          <mxGeometry width="50" height="50" relative="1" as="geometry">
            <mxPoint x="80" y="500" as="sourcePoint" />
            <mxPoint x="80" y="550" as="targetPoint" />
          </mxGeometry>
        </mxCell>
        <mxCell id="9dU0KBPOQf5475nINi9q-36" value="" style="endArrow=classic;html=1;rounded=0;entryX=1.019;entryY=0.872;entryDx=0;entryDy=0;entryPerimeter=0;" edge="1" parent="9dU0KBPOQf5475nINi9q-49" target="9dU0KBPOQf5475nINi9q-32">
          <mxGeometry width="50" height="50" relative="1" as="geometry">
            <mxPoint x="140" y="470" as="sourcePoint" />
            <mxPoint x="190" y="420" as="targetPoint" />
            <Array as="points">
              <mxPoint x="170" y="470" />
              <mxPoint x="170" y="400" />
            </Array>
          </mxGeometry>
        </mxCell>
        <mxCell id="9dU0KBPOQf5475nINi9q-37" value="Yes" style="text;html=1;align=center;verticalAlign=middle;resizable=0;points=[];autosize=1;strokeColor=none;fillColor=none;" vertex="1" parent="9dU0KBPOQf5475nINi9q-49">
          <mxGeometry x="170" y="418" width="40" height="30" as="geometry" />
        </mxCell>
        <mxCell id="9dU0KBPOQf5475nINi9q-38" value="No" style="text;html=1;align=center;verticalAlign=middle;resizable=0;points=[];autosize=1;strokeColor=none;fillColor=none;" vertex="1" parent="9dU0KBPOQf5475nINi9q-49">
          <mxGeometry x="80" y="510" width="40" height="30" as="geometry" />
        </mxCell>
        <mxCell id="9dU0KBPOQf5475nINi9q-39" value="Is the computer sum greater than 21" style="rounded=0;whiteSpace=wrap;html=1;" vertex="1" parent="9dU0KBPOQf5475nINi9q-49">
          <mxGeometry x="20" y="550" width="120" height="60" as="geometry" />
        </mxCell>
        <mxCell id="9dU0KBPOQf5475nINi9q-40" value="is computer sum &amp;gt; user sum?" style="rounded=0;whiteSpace=wrap;html=1;" vertex="1" parent="9dU0KBPOQf5475nINi9q-49">
          <mxGeometry x="20" y="660" width="120" height="60" as="geometry" />
        </mxCell>
        <mxCell id="9dU0KBPOQf5475nINi9q-41" value="" style="endArrow=classic;html=1;rounded=0;entryX=0.5;entryY=0;entryDx=0;entryDy=0;" edge="1" parent="9dU0KBPOQf5475nINi9q-49" target="9dU0KBPOQf5475nINi9q-40">
          <mxGeometry width="50" height="50" relative="1" as="geometry">
            <mxPoint x="80" y="610" as="sourcePoint" />
            <mxPoint x="130" y="560" as="targetPoint" />
          </mxGeometry>
        </mxCell>
        <mxCell id="9dU0KBPOQf5475nINi9q-42" value="No" style="text;html=1;align=center;verticalAlign=middle;resizable=0;points=[];autosize=1;strokeColor=none;fillColor=none;" vertex="1" parent="9dU0KBPOQf5475nINi9q-49">
          <mxGeometry x="90" y="618" width="40" height="30" as="geometry" />
        </mxCell>
        <mxCell id="9dU0KBPOQf5475nINi9q-43" value="" style="endArrow=classic;html=1;rounded=0;" edge="1" parent="9dU0KBPOQf5475nINi9q-49">
          <mxGeometry width="50" height="50" relative="1" as="geometry">
            <mxPoint x="80" y="720" as="sourcePoint" />
            <mxPoint x="80" y="770" as="targetPoint" />
          </mxGeometry>
        </mxCell>
        <mxCell id="9dU0KBPOQf5475nINi9q-44" value="" style="endArrow=classic;html=1;rounded=0;entryX=0;entryY=0.75;entryDx=0;entryDy=0;exitX=0.983;exitY=0.383;exitDx=0;exitDy=0;exitPerimeter=0;" edge="1" parent="9dU0KBPOQf5475nINi9q-49" source="9dU0KBPOQf5475nINi9q-40" target="9dU0KBPOQf5475nINi9q-16">
          <mxGeometry width="50" height="50" relative="1" as="geometry">
            <mxPoint x="140" y="698" as="sourcePoint" />
            <mxPoint x="190" y="648" as="targetPoint" />
          </mxGeometry>
        </mxCell>
        <mxCell id="9dU0KBPOQf5475nINi9q-45" value="Yes" style="text;html=1;align=center;verticalAlign=middle;resizable=0;points=[];autosize=1;strokeColor=none;fillColor=none;" vertex="1" parent="9dU0KBPOQf5475nINi9q-49">
          <mxGeometry x="170" y="658" width="40" height="30" as="geometry" />
        </mxCell>
        <mxCell id="9dU0KBPOQf5475nINi9q-46" value="No" style="text;html=1;align=center;verticalAlign=middle;resizable=0;points=[];autosize=1;strokeColor=none;fillColor=none;" vertex="1" parent="9dU0KBPOQf5475nINi9q-49">
          <mxGeometry x="70" y="718" width="40" height="30" as="geometry" />
        </mxCell>
        <mxCell id="9dU0KBPOQf5475nINi9q-47" value="you win" style="rounded=0;whiteSpace=wrap;html=1;" vertex="1" parent="9dU0KBPOQf5475nINi9q-49">
          <mxGeometry x="20" y="770" width="120" height="60" as="geometry" />
        </mxCell>
        <mxCell id="9dU0KBPOQf5475nINi9q-48" value="" style="endArrow=classic;html=1;rounded=0;entryX=0;entryY=0.5;entryDx=0;entryDy=0;" edge="1" parent="9dU0KBPOQf5475nINi9q-49" target="9dU0KBPOQf5475nINi9q-47">
          <mxGeometry width="50" height="50" relative="1" as="geometry">
            <mxPoint x="20" y="590" as="sourcePoint" />
            <mxPoint x="70" y="540" as="targetPoint" />
            <Array as="points">
              <mxPoint y="590" />
              <mxPoint y="700" />
              <mxPoint y="800" />
            </Array>
          </mxGeometry>
        </mxCell>
      </root>
    </mxGraphModel>
  </diagram>
</mxfile>
